<?xml version="1.0" encoding="utf-8"?>
<!DOCTYPE svg PUBLIC "-//W3C//DTD SVG 1.1//EN" "http://www.w3.org/Graphics/SVG/1.1/DTD/svg11.dtd">
<svg fill="#FFFFFF"  version="1.1" xmlns="http://www.w3.org/2000/svg" xmlns:xlink="http://www.w3.org/1999/xlink" x="0px" y="0px" width="48" height="48">

  <defs>
    <style>
      g {
        display: none;
      }
      g:target {
        display: inline;
      }
    </style>
  </defs>

  <g id='icon-cores'>
    <svg height="48" viewBox="0 0 24 24" width="48" >
      <path d="M0 0h24v24H0V0z" fill="none"/>
      <path d="M17 16l-4-4V8.82C14.16 8.4 15 7.3 15 6c0-1.66-1.34-3-3-3S9 4.34 9 6c0 1.3.84 2.4 2 2.82V12l-4 4H3v5h5v-3.05l4-4.2 4 4.2V21h5v-5h-4z"/>
      <path d="M0 0h24v24H0z" fill="none"/>
    </svg>
  </g>

  <g id='icon-account'>
    <svg  height="48" viewBox="0 0 24 24" width="48"  >
      <path d="M12 12c2.21 0 4-1.79 4-4s-1.79-4-4-4-4 1.79-4 4 1.79 4 4 4zm0 2c-2.67 0-8 1.34-8 4v2h16v-2c0-2.66-5.33-4-8-4z"/>
      <path d="M0 0h24v24H0z" fill="none"/>
    </svg>
  </g>

  <g id="icon-search">
    <svg width="48" height="48" viewBox="0 0 24 24"><path d="M23.809 21.646l-6.205-6.205c1.167-1.605 1.857-3.579 1.857-5.711 0-5.365-4.365-9.73-9.731-9.73-5.365 0-9.73 4.365-9.73 9.73 0 5.366 4.365 9.73 9.73 9.73 2.034 0 3.923-.627 5.487-1.698l6.238 6.238 2.354-2.354zm-20.955-11.916c0-3.792 3.085-6.877 6.877-6.877s6.877 3.085 6.877 6.877-3.085 6.877-6.877 6.877c-3.793 0-6.877-3.085-6.877-6.877z"/></svg>
  </g>

  <g id="icon-partners">
    <svg height="48" viewBox="0 0 24 24" width="48" >
      <path d="M0 0h24v24H0z" fill="none"/>
      <path d="M16 11c1.66 0 2.99-1.34 2.99-3S17.66 5 16 5c-1.66 0-3 1.34-3 3s1.34 3 3 3zm-8 0c1.66 0 2.99-1.34 2.99-3S9.66 5 8 5C6.34 5 5 6.34 5 8s1.34 3 3 3zm0 2c-2.33 0-7 1.17-7 3.5V19h14v-2.5c0-2.33-4.67-3.5-7-3.5zm8 0c-.29 0-.62.02-.97.05 1.16.84 1.97 1.97 1.97 3.45V19h6v-2.5c0-2.33-4.67-3.5-7-3.5z"/>
    </svg>
  </g>

  <g id="icon-teachers">
    <svg  height="48" viewBox="0 0 24 24" width="48">
      <path d="M0 0h24v24H0z" fill="none"/>
      <path d="M5 13.18v4L12 21l7-3.82v-4L12 17l-7-3.82zM12 3L1 9l11 6 9-4.91V17h2V9L12 3z"/>
    </svg>
  </g>

  <g id="icon-about-us">
    <svg height="48" viewBox="0 0 24 24" width="48" >
      <path d="M15 11V5l-3-3-3 3v2H3v14h18V11h-6zm-8 8H5v-2h2v2zm0-4H5v-2h2v2zm0-4H5V9h2v2zm6 8h-2v-2h2v2zm0-4h-2v-2h2v2zm0-4h-2V9h2v2zm0-4h-2V5h2v2zm6 12h-2v-2h2v2zm0-4h-2v-2h2v2z"/>
      <path d="M0 0h24v24H0z" fill="none"/>
    </svg>
  </g>
  <g id="sign-in">
    <svg height="48" viewBox="0 0 24 24" width="48">
      <path d="M12 12c2.21 0 4-1.79 4-4s-1.79-4-4-4-4 1.79-4 4 1.79 4 4 4zm0 2c-2.67 0-8 1.34-8 4v2h16v-2c0-2.66-5.33-4-8-4z"/>
      <path d="M0 0h24v24H0z" fill="none"/>
    </svg>
  </g>

  <g id="icon-courses">
    <svg height="48" viewBox="0 0 24 24" width="48">
      <defs>
          <path d="M0 0h24v24H0V0z" id="a"/>
      </defs>z
      <clipPath id="b">
          <use overflow="visible" xlink:href="#a"/>
      </clipPath>
      <path clip-path="url(#b)" d="M21 5c-1.11-.35-2.33-.5-3.5-.5-1.95 0-4.05.4-5.5 1.5-1.45-1.1-3.55-1.5-5.5-1.5S2.45 4.9 1 6v14.65c0 .25.25.5.5.5.1 0 .15-.05.25-.05C3.1 20.45 5.05 20 6.5 20c1.95 0 4.05.4 5.5 1.5 1.35-.85 3.8-1.5 5.5-1.5 1.65 0 3.35.3 4.75 1.05.1.05.15.05.25.05.25 0 .5-.25.5-.5V6c-.6-.45-1.25-.75-2-1zm0 13.5c-1.1-.35-2.3-.5-3.5-.5-1.7 0-4.15.65-5.5 1.5V8c1.35-.85 3.8-1.5 5.5-1.5 1.2 0 2.4.15 3.5.5v11.5z"/>
    </svg>
  </g>

  <g id="icon-my-courses">
    <svg height="48" viewBox="0 0 24 24" width="48">
      <path d="M0 0h24v24H0z" fill="none"/>
      <path d="M12 11.55C9.64 9.35 6.48 8 3 8v11c3.48 0 6.64 1.35 9 3.55 2.36-2.19 5.52-3.55 9-3.55V8c-3.48 0-6.64 1.35-9 3.55zM12 8c1.66 0 3-1.34 3-3s-1.34-3-3-3-3 1.34-3 3 1.34 3 3 3z"/>
    </svg>
  </g>

  <g id="icon-logout">
    <svg height="48" viewBox="0 0 24 24" width="48">
      <path d="M0 0h24v24H0z" fill="none"/>
      <path d="M13.49 5.48c1.1 0 2-.9 2-2s-.9-2-2-2-2 .9-2 2 .9 2 2 2zm-3.6 13.9l1-4.4 2.1 2v6h2v-7.5l-2.1-2 .6-3c1.3 1.5 3.3 2.5 5.5 2.5v-2c-1.9 0-3.5-1-4.3-2.4l-1-1.6c-.4-.6-1-1-1.7-1-.3 0-.5.1-.8.1l-5.2 2.2v4.7h2v-3.4l1.8-.7-1.6 8.1-4.9-1-.4 2 7 1.4z"/>
    </svg>
  </g>

  <g id="icon-arrow-up">
    <svg height="48" viewBox="0 0 24 24" width="48" >
      <path d="M7.41 15.41L12 10.83l4.59 4.58L18 14l-6-6-6 6z"/>
      <path d="M0 0h24v24H0z" fill="none"/>
    </svg>
  </g>

  <g id="icon-arrow-down">
    <svg height="48" viewBox="0 0 24 24" width="48">
      <path d="M7.41 7.84L12 12.42l4.59-4.58L18 9.25l-6 6-6-6z"/>
      <path d="M0-.75h24v24H0z" fill="none"/>
    </svg>
  </g>

  <g id="icon-searched">
    <svg height="48" viewBox="0 0 24 24" width="48">
      <path d="M0 0h24v24H0V0zm0 0h24v24H0V0z" fill="none"/>
      <path d="M17.01 14h-.8l-.27-.27c.98-1.14 1.57-2.61 1.57-4.23 0-3.59-2.91-6.5-6.5-6.5s-6.5 3-6.5 6.5H2l3.84 4 4.16-4H6.51C6.51 7 8.53 5 11.01 5s4.5 2.01 4.5 4.5c0 2.48-2.02 4.5-4.5 4.5-.65 0-1.26-.14-1.82-.38L7.71 15.1c.97.57 2.09.9 3.3.9 1.61 0 3.08-.59 4.22-1.57l.27.27v.79l5.01 4.99L22 19l-4.99-5z"/>
    </svg>
  </g>

  <g id="icon-eye-visibility">
    <svg height="48" viewBox="0 0 24 24" width="48" >
      <path d="M0 0h24v24H0z" fill="none"/>
      <path d="M12 4.5C7 4.5 2.73 7.61 1 12c1.73 4.39 6 7.5 11 7.5s9.27-3.11 11-7.5c-1.73-4.39-6-7.5-11-7.5zM12 17c-2.76 0-5-2.24-5-5s2.24-5 5-5 5 2.24 5 5-2.24 5-5 5zm0-8c-1.66 0-3 1.34-3 3s1.34 3 3 3 3-1.34 3-3-1.34-3-3-3z"/>
    </svg>
  </g>

  <g id="icon-visibility-off">
    <svg  height="48" viewBox="0 0 24 24" width="48" >
      <path d="M0 0h24v24H0zm0 0h24v24H0zm0 0h24v24H0zm0 0h24v24H0z" fill="none"/>
      <path d="M12 7c2.76 0 5 2.24 5 5 0 .65-.13 1.26-.36 1.83l2.92 2.92c1.51-1.26 2.7-2.89 3.43-4.75-1.73-4.39-6-7.5-11-7.5-1.4 0-2.74.25-3.98.7l2.16 2.16C10.74 7.13 11.35 7 12 7zM2 4.27l2.28 2.28.46.46C3.08 8.3 1.78 10.02 1 12c1.73 4.39 6 7.5 11 7.5 1.55 0 3.03-.3 4.38-.84l.42.42L19.73 22 21 20.73 3.27 3 2 4.27zM7.53 9.8l1.55 1.55c-.05.21-.08.43-.08.65 0 1.66 1.34 3 3 3 .22 0 .44-.03.65-.08l1.55 1.55c-.67.33-1.41.53-2.2.53-2.76 0-5-2.24-5-5 0-.79.2-1.53.53-2.2zm4.31-.78l3.15 3.15.02-.16c0-1.66-1.34-3-3-3l-.17.01z"/>
    </svg>
  </g>

  <g id="icon-close">
    <svg height="48" viewBox="0 0 24 24" width="48">
      <path d="M19 6.41L17.59 5 12 10.59 6.41 5 5 6.41 10.59 12 5 17.59 6.41 19 12 13.41 17.59 19 19 17.59 13.41 12z"/>
      <path d="M0 0h24v24H0z" fill="none"/>
    </svg>
  </g>

  <g id="icon-studend-category">
    <svg width="48" height="48" viewBox="10 0 300 300">
      <g transform="translate(0,300) scale(0.100000,-0.100000)"
      fill="#FFFFFF" stroke="none">
      <path d="M637 2994 c-4 -4 -7 -28 -7 -54 l0 -46 122 -13 c68 -7 125 -14 127
      -16 2 -2 -6 -16 -18 -31 -13 -16 -21 -41 -21 -64 0 -95 127 -391 236 -552 70
      -103 91 -128 216 -255 l100 -101 -46 -359 c-25 -197 -62 -481 -81 -631 -20
      -150 -33 -277 -30 -283 4 -5 42 -9 86 -9 l79 0 0 -240 c0 -275 3 -289 73 -321
      53 -23 71 -23 124 0 70 32 73 46 73 321 l0 240 50 0 50 0 0 -236 c0 -222 1
      -239 21 -274 38 -68 127 -90 190 -47 53 35 58 64 58 325 l1 232 79 0 c44 0 82
      3 84 8 3 4 1 32 -4 62 -5 30 -22 161 -39 290 -17 129 -33 252 -36 273 l-6 39
      33 -17 c42 -22 115 -23 156 -2 58 31 67 62 60 227 -9 215 -51 372 -142 536
      -37 67 -167 214 -189 214 -6 0 -79 -132 -162 -293 -83 -160 -155 -290 -160
      -287 -5 3 -64 134 -131 292 -97 230 -129 295 -159 325 -98 101 -198 278 -270
      477 l-42 118 56 -6 c32 -4 73 -9 93 -12 l36 -5 7 47 c3 26 3 51 -1 54 -5 4
      -141 21 -303 39 -162 18 -309 34 -325 37 -17 3 -34 2 -38 -2z"/>
      <path d="M1555 2750 c-82 -54 -151 -103 -152 -107 -2 -5 10 -17 27 -26 17 -10
      30 -27 30 -38 0 -18 9 -19 265 -19 259 0 265 0 265 20 0 28 47 50 61 29 5 -8
      7 -25 4 -39 -28 -117 -19 -120 144 -58 17 6 21 12 13 20 -7 7 -27 3 -67 -16
      -88 -40 -105 -33 -80 29 13 30 14 42 3 71 -11 30 -35 49 -174 134 -89 55 -167
      100 -175 99 -8 0 -81 -45 -164 -99z"/>
      <path d="M1490 2497 c0 -41 49 -125 92 -156 127 -93 302 -43 363 103 8 19 15
      45 15 56 0 20 -5 20 -235 20 l-235 0 0 -23z"/>
      <path d="M1570 2245 c0 -9 152 -365 155 -365 10 0 185 352 180 360 -6 10 -335
      15 -335 5z"/>
      </g>
    </svg>
  </g>

  <g id="icon-teacher-category">
    <svg width="48" height="48" viewBox="0 0 300 300">
      <g transform="translate(0,300) scale(0.1,-0.1)"
      fill="#FFFFFF">
        <path d="M210 2965 c-10 -12 16 -59 140 -260 139 -225 152 -249 141 -271 -16
        -37 -14 -56 18 -126 28 -62 176 -335 191 -351 4 -5 67 -2 139 7 181 22 189 22
        197 -11 4 -15 -14 -172 -41 -362 l-48 -336 -115 -169 c-63 -92 -119 -182 -124
        -200 -22 -72 -8 -92 267 -365 l255 -255 -2 -78 c-2 -64 1 -82 18 -105 49 -68
        151 -80 215 -25 61 51 61 53 70 562 4 256 11 485 16 510 l8 45 58 3 57 3 0
        -546 0 -545 555 0 555 0 0 545 0 545 25 0 c23 0 25 3 25 50 l0 50 -630 0 -631
        0 7 38 c9 47 9 47 33 23 40 -40 103 -40 140 0 11 12 36 49 57 83 21 33 70 112
        111 174 40 62 73 117 73 121 0 12 -157 235 -223 319 -48 59 -65 74 -112 91
        -31 12 -72 21 -93 21 -36 0 -39 -3 -106 -105 -38 -58 -70 -104 -72 -102 -2 2
        8 46 22 98 37 134 37 133 -13 137 l-43 3 0 -118 -1 -118 -41 124 c-39 117 -43
        124 -75 138 -20 8 -47 11 -63 8 -15 -3 -101 -12 -191 -19 -195 -16 -171 -30
        -260 151 -33 68 -68 127 -79 133 -10 5 -34 10 -53 10 -37 0 -34 -5 -281 398
        -57 92 -73 105 -96 77z m1188 -1152 c3 -27 -1 -35 -23 -45 -22 -10 -29 -9 -47
        10 -19 18 -20 25 -10 47 10 22 18 26 45 23 28 -3 32 -7 35 -35z m300 -23 c17
        -27 32 -55 32 -61 0 -12 -122 -230 -126 -226 -2 2 30 238 41 305 3 17 9 32 13
        32 4 0 22 -23 40 -50z m-339 -80 c44 -23 31 -80 -19 -80 -59 0 -61 74 -2 89 2
        1 11 -3 21 -9z m-126 -812 c-3 -112 -6 -204 -7 -205 0 0 -43 39 -94 87 l-93
        89 78 115 c59 87 83 116 100 116 21 0 21 0 16 -202z"/>
        <path d="M1355 2663 c-47 -12 -107 -66 -131 -117 -32 -68 -31 -128 2 -194 36
        -73 96 -113 178 -119 53 -4 68 -1 116 24 63 33 108 96 117 161 21 157 -126
        284 -282 245z"/>
      </g>
    </svg>
  </g>

  <g id="icon-enterprise-category" >
    <svg enable-background="new 0 0 200 200" height="48" viewBox="0 0 200 200" width="48" >
      <g>
        <path d="M161.039,133.31c-0.461-2.022-1.58-3.931-3.347-5.475c-1.776-1.532-3.945-2.458-6.193-2.798l-36.148-6.993   l10.457,6.94L109.3,176.741l-9.3-38.446l-9.298,38.446l-16.506-51.757l10.454-6.94l-36.148,6.993   c-2.249,0.34-4.416,1.266-6.194,2.798c-1.764,1.544-2.885,3.452-3.346,5.475l-10.717,47.08l20.218,7.014   c6.714,6.976,25.5,12.108,48.035,12.597H100h3.504c22.534-0.488,41.32-5.621,48.034-12.597l20.218-7.014L161.039,133.31z" fill="#FFFFFF"/><polygon fill="#FFFFFF" points="100,123.298 91.667,126.281 100,138.295 108.335,126.281  "/><path d="M115.569,101.479c0,1.268-1.036,2.304-2.303,2.304H86.732c-1.266,0-2.301-1.036-2.301-2.304l0,0   c0-1.268,1.036-2.305,2.301-2.305h26.535C114.533,99.174,115.569,100.212,115.569,101.479L115.569,101.479z M100,19.439   c1.266,0,2.305-1.034,2.305-2.303V2.305C102.305,1.04,101.266,0,100,0l0,0c-1.266,0-2.305,1.04-2.305,2.305v14.831   C97.695,18.405,98.734,19.439,100,19.439L100,19.439z M119.876,24.769c1.099,0.633,2.513,0.254,3.149-0.845l7.414-12.845   c0.634-1.096,0.254-2.512-0.846-3.145l0,0c-1.096-0.634-2.512-0.254-3.143,0.841l-7.417,12.848   C118.401,22.718,118.779,24.134,119.876,24.769L119.876,24.769z M134.427,39.316c0.633,1.096,2.049,1.479,3.146,0.845l12.844-7.417   c1.098-0.633,1.478-2.049,0.845-3.145l0,0c-0.634-1.098-2.05-1.476-3.146-0.843l-12.844,7.414   C134.173,36.804,133.792,38.219,134.427,39.316L134.427,39.316z M139.755,59.195c0,1.266,1.035,2.305,2.301,2.302h14.835   c1.264,0,2.3-1.036,2.3-2.302l0,0c0-1.268-1.036-2.303-2.3-2.303h-14.835C140.787,56.892,139.755,57.928,139.755,59.195   L139.755,59.195z M80.125,24.769c1.096-0.635,1.478-2.051,0.841-3.146L73.55,8.774c-0.634-1.096-2.048-1.476-3.145-0.841l0,0   c-1.1,0.633-1.478,2.049-0.843,3.145l7.416,12.845C77.613,25.023,79.027,25.401,80.125,24.769L80.125,24.769z M65.573,39.316   c0.634-1.098,0.254-2.512-0.842-3.146l-12.845-7.417c-1.098-0.629-2.516-0.255-3.148,0.845l0,0   c-0.633,1.096-0.251,2.514,0.845,3.145l12.844,7.417C63.526,40.791,64.94,40.412,65.573,39.316L65.573,39.316z M60.247,59.192   c0-1.266-1.036-2.302-2.3-2.305H43.113c-1.268,0.003-2.303,1.04-2.303,2.305l0,0c0,1.267,1.036,2.305,2.303,2.305h14.834   C59.211,61.497,60.247,60.459,60.247,59.192L60.247,59.192z M115.569,107.805c0-1.268-1.036-2.304-2.303-2.304H86.732   c-1.266,0-2.301,1.036-2.301,2.304l0,0c0,1.267,1.036,2.303,2.301,2.303h26.535C114.533,110.107,115.569,109.071,115.569,107.805   L115.569,107.805z M92.222,111.825c1.082,3.264,4.152,5.622,7.778,5.622c3.627,0,6.697-2.358,7.779-5.622H92.222z M100,59.093   h0.003l0,0c1.548-1.462,3.94-4.25,3.94-6.724c0-2.309-1.77-4.189-3.94-4.189c-2.178,0-3.945,1.881-3.945,4.189   C96.058,54.843,98.452,57.631,100,59.093z M97.805,64.039c0.283-0.177,0.546-0.364,0.802-0.534   c0.255-0.171,0.495-0.333,0.718-0.484c0.097-0.065,0.371-0.272,0.679-0.505c0.302,0.233,0.576,0.44,0.675,0.505   c0.223,0.152,0.462,0.313,0.718,0.484c0.253,0.17,0.52,0.357,0.803,0.534c0.563,0.354,1.165,0.732,1.768,1.11l0.057,0.035   l0.053,0.034l0.03,0.016l0.111,0.063l0.229,0.129c0.152,0.085,0.301,0.168,0.451,0.251c0.299,0.168,0.596,0.334,0.88,0.493   c0.603,0.301,1.165,0.583,1.647,0.828c0.389,0.18,0.722,0.335,0.984,0.458l-4.901,28.161h-7.018l-4.9-28.161   c0.263-0.122,0.596-0.277,0.984-0.458c0.481-0.244,1.046-0.527,1.647-0.828c0.287-0.159,0.58-0.325,0.879-0.493   c0.15-0.083,0.302-0.166,0.454-0.251l0.226-0.129l0.113-0.063l0.03-0.016l0.051-0.034l0.061-0.035   C96.638,64.771,97.241,64.392,97.805,64.039z M132.428,59.192c0,9.522-4.106,18.086-10.64,24.019   c-0.018,0.009-0.979,0.816-1.446,1.223c-3.072,2.671-4.775,6.788-4.775,11.182h-11.561l6.01-27.427   c1.279,0.594,3.56,1.484,5.77,1.484c1.017,0,1.927-0.191,2.701-0.565c1.386-0.672,2.442-1.874,2.977-3.394   c0.532-1.513,0.478-3.161-0.152-4.633c-0.926-2.155-2.962-3.548-5.191-3.548c-0.818,0-1.613,0.184-2.363,0.552   c-2.806,1.357-4.303,5.356-4.896,7.375c-0.173-0.096-0.364-0.202-0.572-0.318c-0.434-0.258-0.94-0.559-1.481-0.878   c-0.274-0.179-0.557-0.366-0.845-0.553c-0.144-0.096-0.288-0.191-0.436-0.285l-0.217-0.143l-0.108-0.074l-0.028-0.016l-0.003-0.003   c0.011,0.005,0.028,0.016,0.022,0.014l-0.005-0.005l-0.015-0.009l-0.053-0.037c-0.555-0.407-1.11-0.813-1.634-1.191   c-0.258-0.191-0.502-0.389-0.733-0.569c-0.233-0.18-0.454-0.354-0.657-0.513c-0.02-0.016-0.041-0.032-0.061-0.049   c1.692-1.672,4.492-4.963,4.492-8.46c0-3.825-2.928-6.935-6.523-6.935c-3.603,0-6.528,3.109-6.528,6.935   c0,3.497,2.798,6.788,4.492,8.46c-0.021,0.018-0.041,0.034-0.06,0.049c-0.205,0.159-0.424,0.333-0.658,0.513   c-0.233,0.181-0.476,0.378-0.735,0.569c-0.521,0.378-1.078,0.785-1.633,1.191l-0.051,0.037l-0.012,0.009l-0.007,0.005   c-0.003,0.002,0.007-0.005,0.014-0.009l-0.021,0.014l-0.11,0.074l-0.219,0.143c-0.145,0.094-0.29,0.189-0.435,0.285   c-0.287,0.188-0.569,0.375-0.845,0.553c-0.541,0.32-1.046,0.621-1.478,0.878c-0.21,0.117-0.403,0.223-0.575,0.318   c-0.596-2.019-2.091-6.017-4.898-7.375c-0.75-0.368-1.543-0.552-2.363-0.552c-2.228,0-4.266,1.393-5.188,3.548   c-0.633,1.472-0.688,3.12-0.152,4.633c0.532,1.521,1.587,2.722,2.973,3.394c0.776,0.375,1.687,0.565,2.705,0.565   c2.209,0,4.49-0.891,5.766-1.484l6.01,27.427H84.434c0-4.395-1.704-8.511-4.776-11.182c-0.467-0.407-1.43-1.214-1.444-1.223   C71.675,77.278,67.57,68.714,67.57,59.192c0-17.906,14.52-32.43,32.43-32.43S132.428,41.286,132.428,59.192z M115.785,67.809   c-2.058,0-4.288-0.949-5.342-1.463c0.445-1.598,1.726-5.443,4.044-6.563c0.517-0.254,1.066-0.38,1.632-0.38   c1.543,0,2.954,0.961,3.592,2.455c0.437,1.018,0.476,2.157,0.106,3.207c-0.368,1.046-1.1,1.881-2.06,2.348   C117.212,67.675,116.549,67.809,115.785,67.809z M89.557,66.346c-1.054,0.514-3.281,1.463-5.338,1.463   c-0.765,0-1.428-0.134-1.975-0.397c-0.959-0.467-1.691-1.301-2.061-2.348c-0.368-1.05-0.331-2.188,0.106-3.207   c0.642-1.494,2.052-2.455,3.592-2.455c0.565,0,1.117,0.125,1.635,0.38C87.835,60.903,89.115,64.748,89.557,66.346z" fill="#FFFFFF"/>
      </g>
    </svg>
  </g>

  <g id="icon-free-category" >
     <svg enable-background="new 0 0 200 200" height="48" viewBox="0 0 200 200" width="48">
      <g><path d="M106.582,63.015c-4.273,4.856-7.285,9.74-8.877,14.553c-0.502,1.523-0.854,3.021-1.063,4.488   c-2.215-0.544-4.521-0.837-6.898-0.837c-16.009,0-29.036,13.028-29.036,29.036c0,16.01,13.026,29.034,29.036,29.034   c16.009,0,29.034-13.024,29.034-29.034c0-2.375-0.291-4.686-0.835-6.9c6.094-0.852,12.553-4.224,19.045-9.933   c1.877,5.267,2.906,10.931,2.906,16.833c0,27.652-22.499,50.152-50.15,50.152c-27.654,0-50.152-22.5-50.152-50.152   c0-27.653,22.498-50.15,50.152-50.15C95.649,60.104,101.318,61.136,106.582,63.015z M162.652,57.992   c-3.902,7.567-8.006,14.359-12.231,20.235c5.071,9.567,7.946,20.466,7.946,32.028c0,37.843-30.779,68.626-68.623,68.626   c-37.84,0-68.626-30.783-68.626-68.626c0-37.841,30.786-68.627,68.626-68.627c11.563,0,22.465,2.879,32.035,7.951   c5.856-4.217,12.632-8.319,20.224-12.234c-14.728-10.588-32.775-16.833-52.259-16.833C40.259,20.512,0,60.773,0,110.255   c0,49.485,40.259,89.744,89.744,89.744c49.481,0,89.743-40.259,89.743-89.744C179.487,90.771,173.241,72.722,162.652,57.992z    M92.301,97.312c-0.827-0.167-1.682-0.254-2.557-0.254c-7.28,0-13.197,5.92-13.197,13.198c0,7.278,5.917,13.197,13.197,13.197   c7.278,0,13.198-5.919,13.198-13.197c0-0.875-0.09-1.729-0.25-2.556l-8.962,6.983c-1.044,0.816-2.354,1.269-3.688,1.269   c-1.598,0-3.106-0.625-4.238-1.756c-2.135-2.138-2.344-5.549-0.485-7.928L92.301,97.312z" fill="#FFFFFF"/><path d="M168.587,36.007c6.827,1.365,21.227,3.238,27.908-3.444c10.069-10.07-3.803-25.252-13.385-15.674   c9.582-9.578-5.603-23.454-15.676-13.384c-6.678,6.68-4.805,21.079-3.442,27.906l-3.439,3.44   c-48.37,20.299-64.252,44.289-56.816,56.846l-14.027,17.998c-0.129,0.167-0.117,0.406,0.035,0.561   c0.152,0.154,0.394,0.165,0.564,0.033l17.996-14.022c12.551,7.433,36.543-8.446,56.844-56.819L168.587,36.007z" fill="#FFFFFF"/>
      </g>
    </svg>
  </g>

  <g id="icon-twitter">
    <svg width="48" height="48" viewBox="0 0 24 24">
      <path d="M24 4.557c-.883.392-1.832.656-2.828.775 1.017-.609 1.798-1.574 2.165-2.724-.951.564-2.005.974-3.127 1.195-.897-.957-2.178-1.555-3.594-1.555-3.179 0-5.515 2.966-4.797 6.045-4.091-.205-7.719-2.165-10.148-5.144-1.29 2.213-.669 5.108 1.523 6.574-.806-.026-1.566-.247-2.229-.616-.054 2.281 1.581 4.415 3.949 4.89-.693.188-1.452.232-2.224.084.626 1.956 2.444 3.379 4.6 3.419-2.07 1.623-4.678 2.348-7.29 2.04 2.179 1.397 4.768 2.212 7.548 2.212 9.142 0 14.307-7.721 13.995-14.646.962-.695 1.797-1.562 2.457-2.549z"/>
    </svg>
  </g>

  <g id="icon-facebook">
    <svg width="48" height="48" viewBox="0 0 24 24">
      <path d="M9 8h-3v4h3v12h5v-12h3.642l.358-4h-4v-1.667c0-.955.192-1.333 1.115-1.333h2.885v-5h-3.808c-3.596 0-5.192 1.583-5.192 4.615v3.385z"/>
    </svg>
  </g>

  <g id="icon-youtube">
    <svg  width="48" height="48" viewBox="0 0 24 24">
      <path d="M4.652 0h1.44l.988 3.702.916-3.702h1.454l-1.665 5.505v3.757h-1.431v-3.757l-1.702-5.505zm6.594 2.373c-1.119 0-1.861.74-1.861 1.835v3.349c0 1.204.629 1.831 1.861 1.831 1.022 0 1.826-.683 1.826-1.831v-3.349c0-1.069-.797-1.835-1.826-1.835zm.531 5.127c0 .372-.19.646-.532.646-.351 0-.554-.287-.554-.646v-3.179c0-.374.172-.651.529-.651.39 0 .557.269.557.651v3.179zm4.729-5.07v5.186c-.155.194-.5.512-.747.512-.271 0-.338-.186-.338-.46v-5.238h-1.27v5.71c0 .675.206 1.22.887 1.22.384 0 .918-.2 1.468-.853v.754h1.27v-6.831h-1.27zm2.203 13.858c-.448 0-.541.315-.541.763v.659h1.069v-.66c.001-.44-.092-.762-.528-.762zm-4.703.04c-.084.043-.167.109-.25.198v4.055c.099.106.194.182.287.229.197.1.485.107.619-.067.07-.092.105-.241.105-.449v-3.359c0-.22-.043-.386-.129-.5-.147-.193-.42-.214-.632-.107zm4.827-5.195c-2.604-.177-11.066-.177-13.666 0-2.814.192-3.146 1.892-3.167 6.367.021 4.467.35 6.175 3.167 6.367 2.6.177 11.062.177 13.666 0 2.814-.192 3.146-1.893 3.167-6.367-.021-4.467-.35-6.175-3.167-6.367zm-12.324 10.686h-1.363v-7.54h-1.41v-1.28h4.182v1.28h-1.41v7.54zm4.846 0h-1.21v-.718c-.223.265-.455.467-.696.605-.652.374-1.547.365-1.547-.955v-5.438h1.209v4.988c0 .262.063.438.322.438.236 0 .564-.303.711-.487v-4.939h1.21v6.506zm4.657-1.348c0 .805-.301 1.431-1.106 1.431-.443 0-.812-.162-1.149-.583v.5h-1.221v-8.82h1.221v2.84c.273-.333.644-.608 1.076-.608.886 0 1.18.749 1.18 1.631v3.609zm4.471-1.752h-2.314v1.228c0 .488.042.91.528.91.511 0 .541-.344.541-.91v-.452h1.245v.489c0 1.253-.538 2.013-1.813 2.013-1.155 0-1.746-.842-1.746-2.013v-2.921c0-1.129.746-1.914 1.837-1.914 1.161 0 1.721.738 1.721 1.914v1.656z"/>
    </svg>
  </g>
  <g id="icon-google">
    <svg enable-background="new 0 0 50 50" id="Layer_1" version="1.1" viewBox="0 0 50 50" xml:space="preserve" xmlns="http://www.w3.org/2000/svg" xmlns:xlink="http://www.w3.org/1999/xlink">
      <path d="M45,1H5C2.8,1,1,2.8,1,5v40c0,2.2,1.8,4,4,4h40c2.2,0,4-1.8,4-4V5C49,2.8,47.2,1,45,1z" fill="#FFFFFF" fill-opacity="0"/>
      <g><path d="M20.3,10.5c-3.7,1.3-6.9,4.1-8.7,7.6c-0.6,1.2-1.1,2.5-1.3,3.9c-0.7,3.3-0.2,6.9,1.3,9.9   c1,2,2.4,3.7,4.2,5.1c1.6,1.3,3.5,2.3,5.6,2.8c2.6,0.7,5.3,0.7,7.8,0.1c2.3-0.5,4.5-1.6,6.3-3.3c1.9-1.7,3.2-3.9,3.9-6.4   c0.8-2.6,0.9-5.4,0.4-8.1c-4.8,0-9.6,0-14.4,0c0,2,0,4,0,6c2.8,0,5.6,0,8.3,0c-0.3,1.9-1.5,3.7-3.1,4.7c-1,0.7-2.2,1.1-3.4,1.3   c-1.2,0.2-2.5,0.2-3.7,0c-1.2-0.2-2.4-0.8-3.4-1.5c-1.6-1.1-2.9-2.8-3.5-4.7c-0.7-1.9-0.7-4,0-6c0.5-1.3,1.2-2.6,2.2-3.6   c1.2-1.3,2.8-2.2,4.6-2.5c1.5-0.3,3-0.3,4.5,0.2c1.2,0.4,2.4,1.1,3.3,1.9c0.9-0.9,1.9-1.9,2.8-2.8c0.5-0.5,1-1,1.5-1.5   c-1.4-1.3-3.1-2.4-4.9-3.1C27.3,9.4,23.6,9.4,20.3,10.5z" fill="#FFFFFF"/><g>
      <path d="M20.3,10.5c3.3-1.1,7-1.1,10.3,0.1c1.8,0.7,3.5,1.7,4.9,3.1c-0.5,0.5-1,1-1.5,1.5    c-0.9,0.9-1.9,1.9-2.8,2.8c-0.9-0.9-2.1-1.6-3.3-1.9c-1.4-0.4-3-0.5-4.5-0.2c-1.7,0.4-3.3,1.3-4.6,2.5c-1,1-1.8,2.3-2.2,3.6    c-1.7-1.3-3.3-2.6-5-3.9C13.4,14.6,16.6,11.8,20.3,10.5z" fill="#FFFFFF"/></g><g><path d="M10.3,22c0.3-1.3,0.7-2.6,1.3-3.9c1.7,1.3,3.3,2.6,5,3.9c-0.7,1.9-0.7,4,0,6c-1.7,1.3-3.3,2.6-5,3.9    C10.1,28.8,9.6,25.3,10.3,22z" fill="#FFFFFF"/></g><g><path d="M25.3,22.1c4.8,0,9.6,0,14.4,0c0.5,2.7,0.4,5.5-0.4,8.1c-0.7,2.4-2,4.6-3.9,6.4c-1.6-1.3-3.2-2.5-4.9-3.8    c1.6-1.1,2.7-2.8,3.1-4.7c-2.8,0-5.6,0-8.3,0C25.3,26.1,25.3,24.1,25.3,22.1z" fill="#FFFFFF"/></g><g><path d="M11.6,31.9c1.7-1.3,3.3-2.6,5-3.9c0.6,1.9,1.9,3.6,3.5,4.7c1,0.7,2.2,1.2,3.4,1.5c1.2,0.2,2.4,0.2,3.7,0    c1.2-0.2,2.4-0.7,3.4-1.3c1.6,1.3,3.2,2.5,4.9,3.8c-1.8,1.6-3.9,2.7-6.3,3.3c-2.6,0.6-5.3,0.6-7.8-0.1c-2-0.5-3.9-1.5-5.6-2.8    C14.1,35.6,12.6,33.8,11.6,31.9z" fill="#FFFFFF"/></g></g></svg>
  </g>
</svg>