<svg fill="#FFF" xmlns="http://www.w3.org/2000/svg" xmlns:xlink="http://www.w3.org/1999/xlink" width="48" height="48"><defs><style>g{display:none}g:target{display:inline}</style></defs><svg height="48" viewBox="0 0 24 24" width="48" id="icon-cores"><path d="M0 0h24v24H0V0z" fill="none"/><path d="M17 16l-4-4V8.82C14.16 8.4 15 7.3 15 6c0-1.66-1.34-3-3-3S9 4.34 9 6c0 1.3.84 2.4 2 2.82V12l-4 4H3v5h5v-3.05l4-4.2 4 4.2V21h5v-5h-4z"/><path d="M0 0h24v24H0z" fill="none"/></svg><svg height="48" viewBox="0 0 24 24" width="48" id="icon-account"><path d="M12 12c2.21 0 4-1.79 4-4s-1.79-4-4-4-4 1.79-4 4 1.79 4 4 4zm0 2c-2.67 0-8 1.34-8 4v2h16v-2c0-2.66-5.33-4-8-4z"/><path d="M0 0h24v24H0z" fill="none"/></svg><svg width="48" height="48" viewBox="0 0 24 24" id="icon-search"><path d="M23.809 21.646l-6.205-6.205a9.68 9.68 0 0 0 1.857-5.711C19.461 4.365 15.096 0 9.73 0 4.365 0 0 4.365 0 9.73c0 5.366 4.365 9.73 9.73 9.73a9.678 9.678 0 0 0 5.487-1.698L21.455 24l2.354-2.354zM2.854 9.73c0-3.792 3.085-6.877 6.877-6.877s6.877 3.085 6.877 6.877-3.085 6.877-6.877 6.877A6.884 6.884 0 0 1 2.854 9.73z"/></svg><svg height="48" viewBox="0 0 24 24" width="48" id="icon-partners"><path d="M0 0h24v24H0z" fill="none"/><path d="M16 11c1.66 0 2.99-1.34 2.99-3S17.66 5 16 5c-1.66 0-3 1.34-3 3s1.34 3 3 3zm-8 0c1.66 0 2.99-1.34 2.99-3S9.66 5 8 5C6.34 5 5 6.34 5 8s1.34 3 3 3zm0 2c-2.33 0-7 1.17-7 3.5V19h14v-2.5c0-2.33-4.67-3.5-7-3.5zm8 0c-.29 0-.62.02-.97.05 1.16.84 1.97 1.97 1.97 3.45V19h6v-2.5c0-2.33-4.67-3.5-7-3.5z"/></svg><svg height="48" viewBox="0 0 24 24" width="48" id="icon-teachers"><path d="M0 0h24v24H0z" fill="none"/><path d="M5 13.18v4L12 21l7-3.82v-4L12 17l-7-3.82zM12 3L1 9l11 6 9-4.91V17h2V9L12 3z"/></svg><svg height="48" viewBox="0 0 24 24" width="48" id="icon-about-us"><path d="M15 11V5l-3-3-3 3v2H3v14h18V11h-6zm-8 8H5v-2h2v2zm0-4H5v-2h2v2zm0-4H5V9h2v2zm6 8h-2v-2h2v2zm0-4h-2v-2h2v2zm0-4h-2V9h2v2zm0-4h-2V5h2v2zm6 12h-2v-2h2v2zm0-4h-2v-2h2v2z"/><path d="M0 0h24v24H0z" fill="none"/></svg><svg height="48" viewBox="0 0 24 24" width="48" id="sign-in"><path d="M12 12c2.21 0 4-1.79 4-4s-1.79-4-4-4-4 1.79-4 4 1.79 4 4 4zm0 2c-2.67 0-8 1.34-8 4v2h16v-2c0-2.66-5.33-4-8-4z"/><path d="M0 0h24v24H0z" fill="none"/></svg><svg height="48" viewBox="0 0 24 24" width="48" id="icon-courses"><defs><path d="M0 0h24v24H0V0z" id="a"/></defs>z<clipPath id="b"><use overflow="visible" xlink:href="#a"/></clipPath><path clip-path="url(#b)" d="M21 5c-1.11-.35-2.33-.5-3.5-.5-1.95 0-4.05.4-5.5 1.5-1.45-1.1-3.55-1.5-5.5-1.5S2.45 4.9 1 6v14.65c0 .25.25.5.5.5.1 0 .15-.05.25-.05C3.1 20.45 5.05 20 6.5 20c1.95 0 4.05.4 5.5 1.5 1.35-.85 3.8-1.5 5.5-1.5 1.65 0 3.35.3 4.75 1.05.1.05.15.05.25.05.25 0 .5-.25.5-.5V6c-.6-.45-1.25-.75-2-1zm0 13.5c-1.1-.35-2.3-.5-3.5-.5-1.7 0-4.15.65-5.5 1.5V8c1.35-.85 3.8-1.5 5.5-1.5 1.2 0 2.4.15 3.5.5v11.5z"/></svg><svg height="48" viewBox="0 0 24 24" width="48" id="icon-my-courses"><path d="M0 0h24v24H0z" fill="none"/><path d="M12 11.55C9.64 9.35 6.48 8 3 8v11c3.48 0 6.64 1.35 9 3.55 2.36-2.19 5.52-3.55 9-3.55V8c-3.48 0-6.64 1.35-9 3.55zM12 8c1.66 0 3-1.34 3-3s-1.34-3-3-3-3 1.34-3 3 1.34 3 3 3z"/></svg><svg height="48" viewBox="0 0 24 24" width="48" id="icon-logout"><path d="M0 0h24v24H0z" fill="none"/><path d="M13.49 5.48c1.1 0 2-.9 2-2s-.9-2-2-2-2 .9-2 2 .9 2 2 2zm-3.6 13.9l1-4.4 2.1 2v6h2v-7.5l-2.1-2 .6-3c1.3 1.5 3.3 2.5 5.5 2.5v-2c-1.9 0-3.5-1-4.3-2.4l-1-1.6c-.4-.6-1-1-1.7-1-.3 0-.5.1-.8.1l-5.2 2.2v4.7h2v-3.4l1.8-.7-1.6 8.1-4.9-1-.4 2 7 1.4z"/></svg><svg height="48" viewBox="0 0 24 24" width="48" id="icon-arrow-up"><path d="M7.41 15.41L12 10.83l4.59 4.58L18 14l-6-6-6 6z"/><path d="M0 0h24v24H0z" fill="none"/></svg><svg height="48" viewBox="0 0 24 24" width="48" id="icon-arrow-down"><path d="M7.41 7.84L12 12.42l4.59-4.58L18 9.25l-6 6-6-6z"/><path d="M0-.75h24v24H0z" fill="none"/></svg><svg height="48" viewBox="0 0 24 24" width="48" id="icon-searched"><path d="M0 0h24v24H0V0zm0 0h24v24H0V0z" fill="none"/><path d="M17.01 14h-.8l-.27-.27a6.451 6.451 0 0 0 1.57-4.23c0-3.59-2.91-6.5-6.5-6.5s-6.5 3-6.5 6.5H2l3.84 4 4.16-4H6.51a4.5 4.5 0 0 1 9 0 4.507 4.507 0 0 1-6.32 4.12L7.71 15.1a6.474 6.474 0 0 0 7.52-.67l.27.27v.79l5.01 4.99L22 19l-4.99-5z"/></svg><svg height="48" viewBox="0 0 24 24" width="48" id="icon-eye-visibility"><path d="M0 0h24v24H0z" fill="none"/><path d="M12 4.5C7 4.5 2.73 7.61 1 12c1.73 4.39 6 7.5 11 7.5s9.27-3.11 11-7.5c-1.73-4.39-6-7.5-11-7.5zM12 17c-2.76 0-5-2.24-5-5s2.24-5 5-5 5 2.24 5 5-2.24 5-5 5zm0-8c-1.66 0-3 1.34-3 3s1.34 3 3 3 3-1.34 3-3-1.34-3-3-3z"/></svg><svg height="48" viewBox="0 0 24 24" width="48" id="icon-visibility-off"><path d="M0 0h24v24H0zm0 0h24v24H0zm0 0h24v24H0zm0 0h24v24H0z" fill="none"/><path d="M12 7c2.76 0 5 2.24 5 5 0 .65-.13 1.26-.36 1.83l2.92 2.92c1.51-1.26 2.7-2.89 3.43-4.75-1.73-4.39-6-7.5-11-7.5-1.4 0-2.74.25-3.98.7l2.16 2.16C10.74 7.13 11.35 7 12 7zM2 4.27l2.28 2.28.46.46A11.804 11.804 0 0 0 1 12c1.73 4.39 6 7.5 11 7.5 1.55 0 3.03-.3 4.38-.84l.42.42L19.73 22 21 20.73 3.27 3 2 4.27zM7.53 9.8l1.55 1.55c-.05.21-.08.43-.08.65 0 1.66 1.34 3 3 3 .22 0 .44-.03.65-.08l1.55 1.55c-.67.33-1.41.53-2.2.53-2.76 0-5-2.24-5-5 0-.79.2-1.53.53-2.2zm4.31-.78l3.15 3.15.02-.16c0-1.66-1.34-3-3-3l-.17.01z"/></svg><svg height="48" viewBox="0 0 24 24" width="48" id="icon-close"><path d="M19 6.41L17.59 5 12 10.59 6.41 5 5 6.41 10.59 12 5 17.59 6.41 19 12 13.41 17.59 19 19 17.59 13.41 12z"/><path d="M0 0h24v24H0z" fill="none"/></svg><svg width="48" height="48" viewBox="10 0 300 300" id="icon-studend-category"><path d="M637 2994c-4-4-7-28-7-54v-46l122-13c68-7 125-14 127-16s-6-16-18-31c-13-16-21-41-21-64 0-95 127-391 236-552 70-103 91-128 216-255l100-101-46-359c-25-197-62-481-81-631-20-150-33-277-30-283 4-5 42-9 86-9h79V340c0-275 3-289 73-321 53-23 71-23 124 0 70 32 73 46 73 321v240h100V344c0-222 1-239 21-274 38-68 127-90 190-47 53 35 58 64 58 325l1 232h79c44 0 82 3 84 8 3 4 1 32-4 62s-22 161-39 290-33 252-36 273l-6 39 33-17c42-22 115-23 156-2 58 31 67 62 60 227-9 215-51 372-142 536-37 67-167 214-189 214-6 0-79-132-162-293-83-160-155-290-160-287s-64 134-131 292c-97 230-129 295-159 325-98 101-198 278-270 477l-42 118 56-6c32-4 73-9 93-12l36-5 7 47c3 26 3 51-1 54-5 4-141 21-303 39s-309 34-325 37c-17 3-34 2-38-2z" transform="matrix(.1 0 0 -.1 0 300)"/><path d="M1555 2750c-82-54-151-103-152-107-2-5 10-17 27-26 17-10 30-27 30-38 0-18 9-19 265-19 259 0 265 0 265 20 0 28 47 50 61 29 5-8 7-25 4-39-28-117-19-120 144-58 17 6 21 12 13 20-7 7-27 3-67-16-88-40-105-33-80 29 13 30 14 42 3 71-11 30-35 49-174 134-89 55-167 100-175 99-8 0-81-45-164-99z" transform="matrix(.1 0 0 -.1 0 300)"/><path d="M1490 2497c0-41 49-125 92-156 127-93 302-43 363 103 8 19 15 45 15 56 0 20-5 20-235 20h-235v-23zM1570 2245c0-9 152-365 155-365 10 0 185 352 180 360-6 10-335 15-335 5z" transform="matrix(.1 0 0 -.1 0 300)"/></svg><svg width="48" height="48" viewBox="0 0 300 300" id="icon-teacher-category"><path d="M210 2965c-10-12 16-59 140-260 139-225 152-249 141-271-16-37-14-56 18-126 28-62 176-335 191-351 4-5 67-2 139 7 181 22 189 22 197-11 4-15-14-172-41-362l-48-336-115-169c-63-92-119-182-124-200-22-72-8-92 267-365l255-255-2-78c-2-64 1-82 18-105 49-68 151-80 215-25 61 51 61 53 70 562 4 256 11 485 16 510l8 45 58 3 57 3V90h1110v1090h25c23 0 25 3 25 50v50H1569l7 38c9 47 9 47 33 23 40-40 103-40 140 0 11 12 36 49 57 83 21 33 70 112 111 174 40 62 73 117 73 121 0 12-157 235-223 319-48 59-65 74-112 91-31 12-72 21-93 21-36 0-39-3-106-105-38-58-70-104-72-102s8 46 22 98c37 134 37 133-13 137l-43 3v-118l-1-118-41 124c-39 117-43 124-75 138-20 8-47 11-63 8-15-3-101-12-191-19-195-16-171-30-260 151-33 68-68 127-79 133-10 5-34 10-53 10-37 0-34-5-281 398-57 92-73 105-96 77zm1188-1152c3-27-1-35-23-45s-29-9-47 10c-19 18-20 25-10 47s18 26 45 23c28-3 32-7 35-35zm300-23c17-27 32-55 32-61 0-12-122-230-126-226-2 2 30 238 41 305 3 17 9 32 13 32s22-23 40-50zm-339-80c44-23 31-80-19-80-59 0-61 74-2 89 2 1 11-3 21-9zm-126-812c-3-112-6-204-7-205 0 0-43 39-94 87l-93 89 78 115c59 87 83 116 100 116 21 0 21 0 16-202z" transform="matrix(.1 0 0 -.1 0 300)"/><path d="M1355 2663c-47-12-107-66-131-117-32-68-31-128 2-194 36-73 96-113 178-119 53-4 68-1 116 24 63 33 108 96 117 161 21 157-126 284-282 245z" transform="matrix(.1 0 0 -.1 0 300)"/></svg><svg height="48" viewBox="0 0 200 200" width="48" id="icon-enterprise-category"><path d="M161.039 133.31c-.461-2.022-1.58-3.931-3.347-5.475-1.776-1.532-3.945-2.458-6.193-2.798l-36.148-6.993 10.457 6.94-16.508 51.757-9.3-38.446-9.298 38.446-16.506-51.757 10.454-6.94-36.148 6.993c-2.249.34-4.416 1.266-6.194 2.798-1.764 1.544-2.885 3.452-3.346 5.475l-10.717 47.08 20.218 7.014c6.714 6.976 25.5 12.108 48.035 12.597h7.006c22.534-.488 41.32-5.621 48.034-12.597l20.218-7.014-10.717-47.08z"/><path d="M100 123.298l-8.333 2.983L100 138.295l8.335-12.014zM115.569 101.479a2.31 2.31 0 0 1-2.303 2.304H86.732a2.308 2.308 0 0 1-2.301-2.304 2.31 2.31 0 0 1 2.301-2.305h26.535a2.31 2.31 0 0 1 2.302 2.305zM100 19.439a2.31 2.31 0 0 0 2.305-2.303V2.305A2.315 2.315 0 0 0 100 0a2.315 2.315 0 0 0-2.305 2.305v14.831A2.31 2.31 0 0 0 100 19.439zm19.876 5.33a2.313 2.313 0 0 0 3.149-.845l7.414-12.845a2.306 2.306 0 0 0-.846-3.145 2.306 2.306 0 0 0-3.143.841l-7.417 12.848a2.312 2.312 0 0 0 .843 3.146zm14.551 14.547a2.31 2.31 0 0 0 3.146.845l12.844-7.417a2.309 2.309 0 0 0 .845-3.145 2.31 2.31 0 0 0-3.146-.843l-12.844 7.414a2.307 2.307 0 0 0-.845 3.146zm5.328 19.879a2.306 2.306 0 0 0 2.301 2.302h14.835c1.264 0 2.3-1.036 2.3-2.302a2.308 2.308 0 0 0-2.3-2.303h-14.835a2.306 2.306 0 0 0-2.301 2.303zm-59.63-34.426a2.308 2.308 0 0 0 .841-3.146L73.55 8.774a2.308 2.308 0 0 0-3.145-.841 2.305 2.305 0 0 0-.843 3.145l7.416 12.845a2.31 2.31 0 0 0 3.147.846zM65.573 39.316a2.31 2.31 0 0 0-.842-3.146l-12.845-7.417a2.313 2.313 0 0 0-3.148.845 2.31 2.31 0 0 0 .845 3.145l12.844 7.417a2.312 2.312 0 0 0 3.146-.844zm-5.326 19.876a2.313 2.313 0 0 0-2.3-2.305H43.113a2.314 2.314 0 0 0-2.303 2.305 2.311 2.311 0 0 0 2.303 2.305h14.834a2.31 2.31 0 0 0 2.3-2.305zm55.322 48.613a2.31 2.31 0 0 0-2.303-2.304H86.732a2.308 2.308 0 0 0-2.301 2.304 2.309 2.309 0 0 0 2.301 2.303h26.535a2.31 2.31 0 0 0 2.302-2.303zm-23.347 4.02c1.082 3.264 4.152 5.622 7.778 5.622 3.627 0 6.697-2.358 7.779-5.622H92.222zM100 59.093h.003c1.548-1.462 3.94-4.25 3.94-6.724 0-2.309-1.77-4.189-3.94-4.189-2.178 0-3.945 1.881-3.945 4.189 0 2.474 2.394 5.262 3.942 6.724zm-2.195 4.946c.283-.177.546-.364.802-.534l.718-.484c.097-.065.371-.272.679-.505.302.233.576.44.675.505.223.152.462.313.718.484.253.17.52.357.803.534l1.768 1.11.057.035.053.034.03.016.111.063.229.129.451.251.88.493c.603.301 1.165.583 1.647.828l.984.458-4.901 28.161h-7.018l-4.9-28.161.984-.458c.481-.244 1.046-.527 1.647-.828.287-.159.58-.325.879-.493l.454-.251.226-.129.113-.063.03-.016.051-.034.061-.035 1.769-1.11zm34.623-4.847c0 9.522-4.106 18.086-10.64 24.019-.018.009-.979.816-1.446 1.223-3.072 2.671-4.775 6.788-4.775 11.182h-11.561l6.01-27.427c1.279.594 3.56 1.484 5.77 1.484 1.017 0 1.927-.191 2.701-.565 1.386-.672 2.442-1.874 2.977-3.394a6.378 6.378 0 0 0-.152-4.633c-.926-2.155-2.962-3.548-5.191-3.548a5.32 5.32 0 0 0-2.363.552c-2.806 1.357-4.303 5.356-4.896 7.375l-.572-.318c-.434-.258-.94-.559-1.481-.878-.274-.179-.557-.366-.845-.553a23.414 23.414 0 0 0-.436-.285l-.217-.143-.108-.074-.028-.016-.003-.003c.011.005.028.016.022.014l-.005-.005-.015-.009-.053-.037c-.555-.407-1.11-.813-1.634-1.191-.258-.191-.502-.389-.733-.569-.233-.18-.454-.354-.657-.513l-.061-.049c1.692-1.672 4.492-4.963 4.492-8.46 0-3.825-2.928-6.935-6.523-6.935-3.603 0-6.528 3.109-6.528 6.935 0 3.497 2.798 6.788 4.492 8.46a1.888 1.888 0 0 1-.06.049c-.205.159-.424.333-.658.513-.233.181-.476.378-.735.569-.521.378-1.078.785-1.633 1.191l-.051.037-.012.009-.007.005.014-.009-.021.014-.11.074-.219.143-.435.285c-.287.188-.569.375-.845.553-.541.32-1.046.621-1.478.878l-.575.318c-.596-2.019-2.091-6.017-4.898-7.375a5.314 5.314 0 0 0-2.363-.552c-2.228 0-4.266 1.393-5.188 3.548a6.343 6.343 0 0 0-.152 4.633c.532 1.521 1.587 2.722 2.973 3.394.776.375 1.687.565 2.705.565 2.209 0 4.49-.891 5.766-1.484l6.01 27.427H84.434c0-4.395-1.704-8.511-4.776-11.182-.467-.407-1.43-1.214-1.444-1.223-6.539-5.933-10.644-14.497-10.644-24.019 0-17.906 14.52-32.43 32.43-32.43s32.428 14.524 32.428 32.43zm-16.643 8.617c-2.058 0-4.288-.949-5.342-1.463.445-1.598 1.726-5.443 4.044-6.563a3.67 3.67 0 0 1 1.632-.38c1.543 0 2.954.961 3.592 2.455a4.401 4.401 0 0 1 .106 3.207c-.368 1.046-1.1 1.881-2.06 2.348-.545.262-1.208.396-1.972.396zm-26.228-1.463c-1.054.514-3.281 1.463-5.338 1.463-.765 0-1.428-.134-1.975-.397-.959-.467-1.691-1.301-2.061-2.348a4.411 4.411 0 0 1 .106-3.207c.642-1.494 2.052-2.455 3.592-2.455.565 0 1.117.125 1.635.38 2.319 1.121 3.599 4.966 4.041 6.564z"/></svg><svg height="48" viewBox="0 0 200 200" width="48" id="icon-free-category"><path d="M106.582 63.015c-4.273 4.856-7.285 9.74-8.877 14.553a26.09 26.09 0 0 0-1.063 4.488 28.865 28.865 0 0 0-6.898-.837c-16.009 0-29.036 13.028-29.036 29.036 0 16.01 13.026 29.034 29.036 29.034 16.009 0 29.034-13.024 29.034-29.034 0-2.375-.291-4.686-.835-6.9 6.094-.852 12.553-4.224 19.045-9.933a50.042 50.042 0 0 1 2.906 16.833c0 27.652-22.499 50.152-50.15 50.152-27.654 0-50.152-22.5-50.152-50.152 0-27.653 22.498-50.15 50.152-50.15a49.973 49.973 0 0 1 16.838 2.91zm56.07-5.023c-3.902 7.567-8.006 14.359-12.231 20.235a68.187 68.187 0 0 1 7.946 32.028c0 37.843-30.779 68.626-68.623 68.626-37.84 0-68.626-30.783-68.626-68.626 0-37.841 30.786-68.627 68.626-68.627a68.212 68.212 0 0 1 32.035 7.951c5.856-4.217 12.632-8.319 20.224-12.234-14.728-10.588-32.775-16.833-52.259-16.833C40.259 20.512 0 60.773 0 110.255c0 49.485 40.259 89.744 89.744 89.744 49.481 0 89.743-40.259 89.743-89.744 0-19.484-6.246-37.533-16.835-52.263zm-70.351 39.32a12.907 12.907 0 0 0-2.557-.254c-7.28 0-13.197 5.92-13.197 13.198 0 7.278 5.917 13.197 13.197 13.197 7.278 0 13.198-5.919 13.198-13.197 0-.875-.09-1.729-.25-2.556l-8.962 6.983a6.018 6.018 0 0 1-3.688 1.269 5.964 5.964 0 0 1-4.238-1.756 6.006 6.006 0 0 1-.485-7.928l6.982-8.956z"/><path d="M168.587 36.007c6.827 1.365 21.227 3.238 27.908-3.444 10.069-10.07-3.803-25.252-13.385-15.674 9.582-9.578-5.603-23.454-15.676-13.384-6.678 6.68-4.805 21.079-3.442 27.906l-3.439 3.44c-48.37 20.299-64.252 44.289-56.816 56.846L89.71 109.695a.425.425 0 0 0 .599.594l17.996-14.022c12.551 7.433 36.543-8.446 56.844-56.819l3.438-3.441z"/></svg><svg width="48" height="48" viewBox="0 0 24 24" id="icon-twitter"><path d="M24 4.557a9.83 9.83 0 0 1-2.828.775 4.932 4.932 0 0 0 2.165-2.724 9.864 9.864 0 0 1-3.127 1.195 4.916 4.916 0 0 0-3.594-1.555c-3.179 0-5.515 2.966-4.797 6.045A13.978 13.978 0 0 1 1.671 3.149a4.93 4.93 0 0 0 1.523 6.574 4.903 4.903 0 0 1-2.229-.616c-.054 2.281 1.581 4.415 3.949 4.89a4.935 4.935 0 0 1-2.224.084 4.928 4.928 0 0 0 4.6 3.419A9.9 9.9 0 0 1 0 19.54a13.94 13.94 0 0 0 7.548 2.212c9.142 0 14.307-7.721 13.995-14.646A10.025 10.025 0 0 0 24 4.557z"/></svg><svg width="48" height="48" viewBox="0 0 24 24" id="icon-facebook"><path d="M9 8H6v4h3v12h5V12h3.642L18 8h-4V6.333C14 5.378 14.192 5 15.115 5H18V0h-3.808C10.596 0 9 1.583 9 4.615V8z"/></svg><svg width="48" height="48" viewBox="0 0 24 24" id="icon-youtube"><path d="M4.652 0h1.44l.988 3.702L7.996 0H9.45L7.785 5.505v3.757H6.354V5.505L4.652 0zm6.594 2.373c-1.119 0-1.861.74-1.861 1.835v3.349c0 1.204.629 1.831 1.861 1.831 1.022 0 1.826-.683 1.826-1.831V4.208c0-1.069-.797-1.835-1.826-1.835zm.531 5.127c0 .372-.19.646-.532.646-.351 0-.554-.287-.554-.646V4.321c0-.374.172-.651.529-.651.39 0 .557.269.557.651V7.5zm4.729-5.07v5.186c-.155.194-.5.512-.747.512-.271 0-.338-.186-.338-.46V2.43h-1.27v5.71c0 .675.206 1.22.887 1.22.384 0 .918-.2 1.468-.853v.754h1.27V2.43h-1.27zm2.203 13.858c-.448 0-.541.315-.541.763v.659h1.069v-.66c.001-.44-.092-.762-.528-.762zm-4.703.04a.927.927 0 0 0-.25.198v4.055c.099.106.194.182.287.229.197.1.485.107.619-.067.07-.092.105-.241.105-.449v-3.359c0-.22-.043-.386-.129-.5-.147-.193-.42-.214-.632-.107zm4.827-5.195c-2.604-.177-11.066-.177-13.666 0C2.353 11.325 2.021 13.025 2 17.5c.021 4.467.35 6.175 3.167 6.367 2.6.177 11.062.177 13.666 0 2.814-.192 3.146-1.893 3.167-6.367-.021-4.467-.35-6.175-3.167-6.367zM6.509 21.819H5.146v-7.54h-1.41v-1.28h4.182v1.28h-1.41v7.54zm4.846 0h-1.21v-.718a2.645 2.645 0 0 1-.696.605c-.652.374-1.547.365-1.547-.955v-5.438h1.209v4.988c0 .262.063.438.322.438.236 0 .564-.303.711-.487v-4.939h1.21v6.506zm4.657-1.348c0 .805-.301 1.431-1.106 1.431-.443 0-.812-.162-1.149-.583v.5h-1.221v-8.82h1.221v2.84c.273-.333.644-.608 1.076-.608.886 0 1.18.749 1.18 1.631v3.609zm4.471-1.752h-2.314v1.228c0 .488.042.91.528.91.511 0 .541-.344.541-.91v-.452h1.245v.489c0 1.253-.538 2.013-1.813 2.013-1.155 0-1.746-.842-1.746-2.013v-2.921c0-1.129.746-1.914 1.837-1.914 1.161 0 1.721.738 1.721 1.914v1.656z"/></svg><g id="icon-google"><svg id="Layer_1" viewBox="0 0 50 50" xmlns="http://www.w3.org/2000/svg" xmlns:xlink="http://www.w3.org/1999/xlink"><path d="M45 1H5C2.8 1 1 2.8 1 5v40c0 2.2 1.8 4 4 4h40c2.2 0 4-1.8 4-4V5c0-2.2-1.8-4-4-4z" fill-opacity="0"/><path d="M20.3 10.5c-3.7 1.3-6.9 4.1-8.7 7.6-.6 1.2-1.1 2.5-1.3 3.9-.7 3.3-.2 6.9 1.3 9.9 1 2 2.4 3.7 4.2 5.1 1.6 1.3 3.5 2.3 5.6 2.8 2.6.7 5.3.7 7.8.1 2.3-.5 4.5-1.6 6.3-3.3 1.9-1.7 3.2-3.9 3.9-6.4.8-2.6.9-5.4.4-8.1H25.4v6h8.3c-.3 1.9-1.5 3.7-3.1 4.7-1 .7-2.2 1.1-3.4 1.3-1.2.2-2.5.2-3.7 0-1.2-.2-2.4-.8-3.4-1.5-1.6-1.1-2.9-2.8-3.5-4.7-.7-1.9-.7-4 0-6 .5-1.3 1.2-2.6 2.2-3.6 1.2-1.3 2.8-2.2 4.6-2.5 1.5-.3 3-.3 4.5.2 1.2.4 2.4 1.1 3.3 1.9l2.8-2.8 1.5-1.5c-1.4-1.3-3.1-2.4-4.9-3.1-3.3-1.1-7-1.1-10.3 0z"/><path d="M20.3 10.5c3.3-1.1 7-1.1 10.3.1 1.8.7 3.5 1.7 4.9 3.1L34 15.2 31.2 18c-.9-.9-2.1-1.6-3.3-1.9-1.4-.4-3-.5-4.5-.2-1.7.4-3.3 1.3-4.6 2.5-1 1-1.8 2.3-2.2 3.6-1.7-1.3-3.3-2.6-5-3.9 1.8-3.5 5-6.3 8.7-7.6z"/><path d="M10.3 22c.3-1.3.7-2.6 1.3-3.9 1.7 1.3 3.3 2.6 5 3.9-.7 1.9-.7 4 0 6-1.7 1.3-3.3 2.6-5 3.9-1.5-3.1-2-6.6-1.3-9.9zM25.3 22.1h14.4c.5 2.7.4 5.5-.4 8.1-.7 2.4-2 4.6-3.9 6.4-1.6-1.3-3.2-2.5-4.9-3.8 1.6-1.1 2.7-2.8 3.1-4.7h-8.3v-6z"/><path d="M11.6 31.9c1.7-1.3 3.3-2.6 5-3.9.6 1.9 1.9 3.6 3.5 4.7 1 .7 2.2 1.2 3.4 1.5 1.2.2 2.4.2 3.7 0 1.2-.2 2.4-.7 3.4-1.3 1.6 1.3 3.2 2.5 4.9 3.8-1.8 1.6-3.9 2.7-6.3 3.3-2.6.6-5.3.6-7.8-.1-2-.5-3.9-1.5-5.6-2.8-1.7-1.5-3.2-3.3-4.2-5.2z"/></svg></g></svg>